<svg width="537" height="529" viewBox="0 0 537 529" fill="none" xmlns="http://www.w3.org/2000/svg">
<path d="M64.0012 366C26.0011 306 34.3852 207.697 114 106C193.615 4.30306 376.094 40.0993 457.001 146C523.948 233.628 493.584 298.676 450.776 366C431.021 397.069 324 499.64 235.001 478C150.367 457.421 86.3038 401.215 64.0012 366Z" fill="#F7B86F"/>
<g style="mix-blend-mode:multiply">
<path d="M64.0012 366C26.0011 306 34.3852 207.697 114 106C193.615 4.30306 376.094 40.0993 457.001 146C523.948 233.628 493.584 298.676 450.776 366C431.021 397.069 324 499.64 235.001 478C150.367 457.421 86.3038 401.215 64.0012 366Z" fill="url(#paint0_linear_693_212)"/>
</g>
<defs>
<linearGradient id="paint0_linear_693_212" x1="412" y1="543" x2="133" y2="105" gradientUnits="userSpaceOnUse">
<stop stop-color="#F7B86F"/>
<stop offset="1" stop-color="#F7B86F" stop-opacity="0"/>
</linearGradient>
</defs>
</svg>
