<svg width="534" height="531" viewBox="0 0 534 531" fill="none" xmlns="http://www.w3.org/2000/svg">
<path d="M61.0073 369.666C27.1624 345.335 6.37925 297.603 85.994 195.906C165.609 94.2086 360.8 7.82053 441.707 113.721C508.654 201.35 476.581 380.121 433.773 447.445C414.018 478.514 355.878 545.76 278.126 477.158C212.814 419.532 94.8522 393.996 61.0073 369.666Z" fill="#F8A792"/>
<g style="mix-blend-mode:multiply">
<path d="M61.0073 369.666C27.1624 345.335 6.37925 297.603 85.994 195.906C165.609 94.2086 360.8 7.82053 441.707 113.721C508.654 201.35 476.581 380.121 433.773 447.445C414.018 478.514 355.878 545.76 278.126 477.158C212.814 419.532 94.8522 393.996 61.0073 369.666Z" fill="url(#paint0_linear_693_136)" fill-opacity="0.6"/>
</g>
<defs>
<linearGradient id="paint0_linear_693_136" x1="399" y1="577" x2="155" y2="83" gradientUnits="userSpaceOnUse">
<stop stop-color="#F28F1B"/>
<stop offset="0.904227" stop-color="#F7B86F" stop-opacity="0"/>
</linearGradient>
</defs>
</svg>
