<svg width="234" height="302" viewBox="0 0 234 302" fill="none" xmlns="http://www.w3.org/2000/svg">
<path d="M197.473 194.982C209.785 190.513 218.767 183.809 222.097 170.972C207.551 171.541 196.334 176.536 186.826 187.183C181.83 192.933 178.364 199.85 176.749 207.294C175.084 212.858 176.179 215.662 181.788 218.466H221.527C219.862 205.015 213.159 196.077 197.473 194.982ZM184.022 209.484C183.44 209.452 182.89 209.207 182.478 208.794C182.065 208.382 181.82 207.832 181.788 207.25C181.827 206.67 182.075 206.124 182.486 205.714C182.897 205.303 183.443 205.055 184.022 205.015C184.614 205.017 185.181 205.253 185.599 205.672C186.017 206.09 186.252 206.658 186.252 207.25C186.252 207.842 186.017 208.409 185.599 208.828C185.181 209.247 184.614 209.483 184.022 209.484Z" fill="#EAEDF5"/>
<path d="M108.213 257.011C102.057 258.325 97.2557 262.346 97.2557 269.035V275.724C94.5062 278.392 93.8496 281.716 93.8496 285.081C95.2039 283.726 97.2557 283.07 99.3076 282.413C99.3459 283.648 99.8266 284.827 100.662 285.737L97.2557 294.396C96.9128 295.003 96.7325 295.689 96.7325 296.386C96.7325 297.084 96.9128 297.769 97.2557 298.377C97.9533 300.388 99.3076 301.701 101.359 301.701C102.714 301.701 104.766 301.044 105.463 299.69C106.817 298.336 106.817 296.366 106.817 294.355L104.766 289.02C106.717 289.841 108.805 290.286 110.921 290.333C112.433 290.368 113.937 290.101 115.345 289.548C116.753 288.995 118.037 288.167 119.122 287.113C120.207 286.058 121.071 284.799 121.664 283.407C122.257 282.016 122.567 280.52 122.576 279.007C122.576 273.016 117.118 267.681 110.265 267.681C107.826 267.616 105.429 268.32 103.411 269.692C106.903 266.312 111.56 264.402 116.42 264.357C125.325 264.357 132.835 271.046 134.887 280.361L148.593 276.34L137.636 271.661L156.801 264.316L141.74 263.659C141.74 263.659 159.55 250.322 162.3 242.977L108.213 257.011ZM106.858 274.37C107.562 274.407 108.228 274.698 108.733 275.188C109.239 275.679 109.549 276.336 109.608 277.037C109.608 278.351 108.254 279.048 106.858 279.048C105.504 279.048 104.806 277.694 104.806 276.381C104.806 275.027 105.463 274.37 106.858 274.37Z" fill="#EAEDF5"/>
<path d="M164.147 74.7037V70.9795C165.026 72.7724 166.374 74.2937 168.048 75.3815C169.722 76.4694 171.66 77.0831 173.655 77.1573H186.361C191.444 77.1573 197.14 88.2861 199.681 91.3531C201.565 88.2861 204.763 77.7707 209.846 77.1573H223.823C228.248 77.1573 231.446 74.7037 233.987 69.7527V72.2062C233.978 76.9911 232.123 81.5879 228.81 85.04C225.496 88.4921 220.979 90.5336 216.199 90.7397L204.15 120.972H194.642L181.323 91.9665C176.768 91.9172 172.414 90.0799 169.202 86.8506C165.989 83.6214 164.174 79.2589 164.147 74.7037Z" fill="#EAEDF5"/>
<path d="M6.56991 71.4935C18.8817 67.0245 27.8637 60.3209 31.1935 47.4833C16.6472 48.0529 5.43069 53.0477 -4.07699 63.6946C-9.07317 69.4445 -12.5391 76.3613 -14.1543 83.8054C-15.8193 89.3698 -14.7239 92.1739 -9.11562 94.978H30.6239C28.959 81.527 22.2555 72.5889 6.56991 71.4935ZM-6.88108 85.9961C-7.46329 85.964 -8.01322 85.7183 -8.42553 85.306C-8.83784 84.8937 -9.08356 84.3438 -9.11561 83.7615C-9.07624 83.1819 -8.82818 82.6361 -8.41735 82.2253C-8.00652 81.8144 -7.46074 81.5664 -6.88108 81.527C-6.28926 81.5282 -5.72212 81.7642 -5.30408 82.1832C-4.88605 82.6021 -4.65127 83.1697 -4.65127 83.7615C-4.65127 84.3534 -4.88605 84.921 -5.30408 85.3399C-5.72212 85.7588 -6.28926 85.9948 -6.88108 85.9961Z" fill="#EAEDF5"/>
<path d="M-26.7559 198.192V194.468C-25.8775 196.261 -24.5295 197.782 -22.8553 198.87C-21.1811 199.958 -19.2434 200.571 -17.2482 200.646H-4.54204C0.540401 200.646 6.23628 211.774 8.77753 214.841C10.6615 211.774 13.86 201.259 18.9424 200.646H32.9192C37.3445 200.646 40.5429 198.192 43.0841 193.241V195.695C43.0742 200.479 41.2196 205.076 37.9062 208.528C34.5929 211.98 30.076 214.022 25.2955 214.228L13.2466 244.46H3.73889L-9.58066 215.455C-14.1357 215.406 -18.4889 213.568 -21.7018 210.339C-24.9146 207.11 -26.7298 202.747 -26.7559 198.192Z" fill="#EAEDF5"/>
<path fill-rule="evenodd" clip-rule="evenodd" d="M57.5336 140.526C56.579 143.198 56.0899 146.013 56.0877 148.85C56.0877 162.17 67.83 173.343 81.7191 173.343C96.134 173.343 107.35 162.696 107.35 148.85C107.358 146.062 106.838 143.296 105.817 140.701C108.884 134.348 106.781 126.505 106.781 126.505C103.573 127.101 100.49 128.242 97.6674 129.879C93.0505 126.329 87.3974 124.389 81.5733 124.358C75.7493 124.326 70.0754 126.204 65.4201 129.704C62.6757 128.128 59.6827 127.031 56.5697 126.461C56.5697 126.461 54.5542 134.217 57.5336 140.526ZM81.7191 159.497C74.7965 159.497 69.4511 154.722 69.4511 148.85C69.4511 142.979 74.7965 138.204 81.7191 138.204C88.6418 138.204 93.9871 142.979 93.9871 148.85C93.4613 154.722 88.116 159.497 81.7191 159.497ZM77.9949 150.472C78.2029 150.472 78.4062 150.41 78.5791 150.294C78.752 150.179 78.8868 150.015 78.9664 149.822C79.046 149.63 79.0668 149.419 79.0262 149.215C78.9857 149.011 78.8855 148.824 78.7384 148.677C78.5914 148.529 78.404 148.429 78.2 148.389C77.9961 148.348 77.7846 148.369 77.5925 148.449C77.4003 148.528 77.2361 148.663 77.1206 148.836C77.005 149.009 76.9433 149.212 76.9433 149.42C76.9378 149.56 76.9611 149.699 77.012 149.829C77.0629 149.959 77.1401 150.077 77.2389 150.176C77.3377 150.275 77.4559 150.352 77.586 150.403C77.7161 150.454 77.8553 150.477 77.9949 150.472H77.9949ZM85.4433 149.376C85.4434 149.584 85.3817 149.788 85.2661 149.96C85.1506 150.133 84.9864 150.268 84.7942 150.348C84.6021 150.427 84.3906 150.448 84.1866 150.408C83.9827 150.367 83.7953 150.267 83.6482 150.12C83.5011 149.973 83.401 149.785 83.3604 149.581C83.3199 149.377 83.3407 149.166 83.4203 148.974C83.4999 148.782 83.6346 148.617 83.8076 148.502C83.9805 148.386 84.1838 148.325 84.3918 148.325C84.6695 148.329 84.9347 148.441 85.1311 148.637C85.3275 148.833 85.4395 149.099 85.4433 149.376H85.4433Z" fill="#EAEDF5"/>
</svg>
