<svg width="39" height="35" viewBox="0 0 39 35" fill="none" xmlns="http://www.w3.org/2000/svg">
<g style="mix-blend-mode:multiply">
<path fill-rule="evenodd" clip-rule="evenodd" d="M1.50858 20.4145C3.55114 28.757 8.32364 36.4185 18.8708 33.7578C29.176 31.1581 48.7021 25.7404 33.2803 7.94581C27.9544 1.80042 18.8708 0.000272942 11.8592 0.000183105C4.84758 8.82123e-05 -1.53725 7.97432 1.50858 20.4145ZM17.9183 8.55107C17.3386 7.95925 16.3888 7.94932 15.7969 8.52888C15.2049 9.10845 15.195 10.058 15.7747 10.6499L22.3935 17.4071L15.7962 23.8753C15.2046 24.4553 15.1953 25.4049 15.7754 25.9963C16.3555 26.5878 17.3053 26.597 17.8969 26.0171L25.5646 18.4994L26.635 17.45L25.586 16.3791L17.9183 8.55107Z" fill="#30529F" fill-opacity="0.6"/>
</g>
</svg>
