<svg width="486" height="553" viewBox="0 0 486 553" fill="none" xmlns="http://www.w3.org/2000/svg">
<path d="M431.485 261.011C425.33 262.324 420.528 266.346 420.528 273.035V279.724C417.779 282.392 417.122 285.716 417.122 289.081C418.476 287.726 420.528 287.07 422.58 286.413C422.618 287.648 423.099 288.827 423.934 289.737L420.528 298.396C420.185 299.003 420.005 299.689 420.005 300.386C420.005 301.084 420.185 301.769 420.528 302.377C421.226 304.388 422.58 305.701 424.632 305.701C425.986 305.701 428.038 305.044 428.736 303.69C430.09 302.336 430.09 300.366 430.09 298.355L428.038 293.02C429.989 293.841 432.077 294.286 434.194 294.333C435.706 294.368 437.21 294.101 438.618 293.548C440.026 292.995 441.31 292.167 442.395 291.113C443.479 290.058 444.343 288.799 444.936 287.407C445.529 286.016 445.839 284.52 445.848 283.007C445.848 277.016 440.39 271.681 433.537 271.681C431.098 271.616 428.701 272.32 426.684 273.692C430.176 270.312 434.833 268.402 439.693 268.357C448.598 268.357 456.107 275.046 458.159 284.361L471.866 280.34L460.909 275.661L480.073 268.316L465.013 267.659C465.013 267.659 482.823 254.322 485.572 246.977L431.485 261.011ZM430.131 278.37C430.834 278.407 431.5 278.698 432.006 279.188C432.511 279.679 432.822 280.336 432.88 281.037C432.88 282.351 431.526 283.048 430.131 283.048C428.777 283.048 428.079 281.694 428.079 280.381C428.079 279.027 428.736 278.37 430.131 278.37Z" fill="#EAEDF5"/>
<path d="M138.939 198.982C151.251 194.513 160.233 187.809 163.563 174.972C149.016 175.541 137.8 180.536 128.292 191.183C123.296 196.933 119.83 203.85 118.215 211.294C116.55 216.858 117.645 219.662 123.254 222.466H162.993C161.328 209.015 154.625 200.077 138.939 198.982ZM125.488 213.484C124.906 213.452 124.356 213.207 123.944 212.794C123.531 212.382 123.286 211.832 123.254 211.25C123.293 210.67 123.541 210.124 123.952 209.714C124.363 209.303 124.909 209.055 125.488 209.015C126.081 209.015 126.649 209.251 127.068 209.67C127.487 210.089 127.723 210.657 127.723 211.25C127.723 211.843 127.487 212.411 127.068 212.83C126.649 213.249 126.081 213.484 125.488 213.484Z" fill="#EAEDF5"/>
<path fill-rule="evenodd" clip-rule="evenodd" d="M189.903 268.014C188.948 270.686 188.459 273.502 188.457 276.339C188.457 289.658 200.199 300.831 214.088 300.831C228.503 300.831 239.72 290.184 239.72 276.339C239.728 273.55 239.207 270.785 238.186 268.189C241.253 261.836 239.15 253.993 239.15 253.993C235.942 254.589 232.859 255.73 230.037 257.367C225.42 253.817 219.766 251.878 213.942 251.846C208.118 251.814 202.444 253.692 197.789 257.192C195.045 255.616 192.052 254.52 188.939 253.95C188.939 253.95 186.923 261.705 189.903 268.014ZM214.088 286.986C207.166 286.986 201.82 282.21 201.82 276.339C201.82 270.468 207.166 265.692 214.088 265.692C221.011 265.692 226.356 270.468 226.356 276.339C225.831 282.21 220.485 286.986 214.088 286.986ZM210.364 277.96C210.572 277.96 210.775 277.898 210.948 277.783C211.121 277.667 211.256 277.503 211.336 277.311C211.415 277.119 211.436 276.907 211.395 276.703C211.355 276.499 211.255 276.312 211.108 276.165C210.961 276.018 210.773 275.918 210.569 275.877C210.365 275.836 210.154 275.857 209.962 275.937C209.769 276.016 209.605 276.151 209.49 276.324C209.374 276.497 209.312 276.7 209.312 276.908C209.307 277.048 209.33 277.187 209.381 277.317C209.432 277.447 209.509 277.566 209.608 277.664C209.707 277.763 209.825 277.84 209.955 277.891C210.085 277.942 210.224 277.965 210.364 277.96ZM217.812 276.865C217.812 277.073 217.751 277.276 217.635 277.449C217.52 277.622 217.355 277.756 217.163 277.836C216.971 277.916 216.76 277.937 216.556 277.896C216.352 277.855 216.164 277.755 216.017 277.608C215.87 277.461 215.77 277.274 215.73 277.07C215.689 276.866 215.71 276.654 215.789 276.462C215.869 276.27 216.004 276.106 216.177 275.99C216.35 275.875 216.553 275.813 216.761 275.813C217.039 275.817 217.304 275.929 217.5 276.125C217.697 276.322 217.809 276.587 217.812 276.865Z" fill="#EAEDF5"/>
<path d="M240.582 137.523C234.426 138.836 229.625 142.858 229.625 149.547V156.236C226.875 158.903 226.219 162.227 226.219 165.592C227.573 164.238 229.625 163.582 231.677 162.925C231.715 164.16 232.196 165.339 233.031 166.249L229.625 174.908C229.282 175.515 229.102 176.201 229.102 176.898C229.102 177.596 229.282 178.281 229.625 178.888C230.322 180.899 231.677 182.212 233.729 182.212C235.083 182.212 237.135 181.556 237.832 180.202C239.187 178.847 239.187 176.878 239.187 174.867L237.135 169.532C239.086 170.353 241.174 170.798 243.29 170.845C244.803 170.879 246.306 170.612 247.714 170.059C249.122 169.506 250.406 168.679 251.491 167.624C252.576 166.57 253.44 165.31 254.033 163.919C254.626 162.527 254.936 161.032 254.945 159.519C254.945 153.527 249.487 148.193 242.634 148.193C240.195 148.128 237.798 148.831 235.781 150.203C239.273 146.823 243.929 144.914 248.789 144.869C257.694 144.869 265.204 151.558 267.256 160.873L280.962 156.851L270.005 152.173L289.17 144.828L274.109 144.171C274.109 144.171 291.919 130.834 294.669 123.488L240.582 137.523ZM239.228 154.882C239.931 154.919 240.597 155.21 241.102 155.7C241.608 156.19 241.918 156.847 241.977 157.549C241.977 158.862 240.623 159.56 239.228 159.56C237.873 159.56 237.176 158.206 237.176 156.893C237.176 155.538 237.832 154.882 239.228 154.882Z" fill="#EAEDF5"/>
<path d="M296.517 202.192V198.468C297.395 200.261 298.743 201.782 300.417 202.87C302.091 203.958 304.029 204.571 306.024 204.646H318.73C323.813 204.646 329.509 215.774 332.05 218.841C333.934 215.774 337.132 205.259 342.215 204.646H356.192C360.617 204.646 363.815 202.192 366.357 197.241V199.695C366.347 204.479 364.492 209.076 361.179 212.528C357.865 215.98 353.348 218.022 348.568 218.228L336.519 248.46H327.011L313.692 219.455C309.137 219.406 304.784 217.568 301.571 214.339C298.358 211.11 296.543 206.747 296.517 202.192Z" fill="#EAEDF5"/>
<path d="M105.613 78.7037V74.9795C106.492 76.7724 107.84 78.2938 109.514 79.3816C111.188 80.4694 113.126 81.0831 115.121 81.1573H127.827C132.91 81.1573 138.605 92.2861 141.147 95.3531C143.031 92.2861 146.229 81.7707 151.312 81.1573H165.288C169.714 81.1573 172.912 78.7037 175.453 73.7527V76.2063C175.443 80.9912 173.589 85.588 170.275 89.04C166.962 92.4921 162.445 94.5336 157.665 94.7397L145.616 124.972H136.108L122.789 95.9666C118.234 95.9173 113.88 94.08 110.667 90.8507C107.455 87.6215 105.639 83.2589 105.613 78.7037Z" fill="#EAEDF5"/>
<path d="M431.485 507.988C425.33 509.301 420.528 513.323 420.528 520.012V526.701C417.779 529.368 417.122 532.692 417.122 536.057C418.476 534.703 420.528 534.046 422.58 533.39C422.618 534.624 423.099 535.804 423.934 536.714L420.528 545.373C420.185 545.98 420.005 546.666 420.005 547.363C420.005 548.06 420.185 548.746 420.528 549.353C421.226 551.364 422.58 552.677 424.632 552.677C425.986 552.677 428.038 552.021 428.736 550.666C430.09 549.312 430.09 547.342 430.09 545.332L428.038 539.997C429.989 540.817 432.077 541.263 434.194 541.31C435.706 541.344 437.21 541.077 438.618 540.524C440.026 539.971 441.31 539.143 442.395 538.089C443.479 537.035 444.343 535.775 444.936 534.384C445.529 532.992 445.839 531.496 445.848 529.984C445.848 523.992 440.39 518.658 433.537 518.658C431.098 518.593 428.701 519.296 426.684 520.668C430.176 517.288 434.833 515.378 439.693 515.333C448.598 515.333 456.107 522.023 458.159 531.338L471.866 527.316L460.909 522.638L480.073 515.292L465.013 514.636C465.013 514.636 482.823 501.299 485.572 493.953L431.485 507.988ZM430.131 525.347C430.834 525.384 431.5 525.674 432.006 526.165C432.511 526.655 432.822 527.312 432.88 528.014C432.88 529.327 431.526 530.025 430.131 530.025C428.777 530.025 428.079 528.671 428.079 527.357C428.079 526.003 428.736 525.347 430.131 525.347Z" fill="#EAEDF5"/>
<path d="M138.939 445.958C151.251 441.489 160.233 434.786 163.563 421.948C149.016 422.518 137.8 427.513 128.292 438.16C123.296 443.909 119.83 450.826 118.215 458.27C116.55 463.835 117.645 466.639 123.254 469.443H162.993C161.328 455.992 154.625 447.054 138.939 445.958ZM125.488 460.461C124.906 460.429 124.356 460.183 123.944 459.771C123.531 459.359 123.286 458.809 123.254 458.227C123.293 457.647 123.541 457.101 123.952 456.69C124.363 456.279 124.909 456.031 125.488 455.992C126.081 455.992 126.649 456.227 127.068 456.646C127.487 457.065 127.723 457.634 127.723 458.227C127.723 458.819 127.487 459.387 127.068 459.807C126.649 460.226 126.081 460.461 125.488 460.461Z" fill="#EAEDF5"/>
<path fill-rule="evenodd" clip-rule="evenodd" d="M189.903 514.991C188.948 517.662 188.459 520.478 188.457 523.315C188.457 536.635 200.199 547.808 214.088 547.808C228.503 547.808 239.72 537.161 239.72 523.315C239.728 520.526 239.207 517.761 238.186 515.166C241.253 508.813 239.15 500.97 239.15 500.97C235.942 501.566 232.859 502.707 230.037 504.344C225.42 500.793 219.766 498.854 213.942 498.822C208.118 498.791 202.444 500.669 197.789 504.169C195.045 502.593 192.052 501.496 188.939 500.926C188.939 500.926 186.923 508.681 189.903 514.991ZM214.088 533.962C207.166 533.962 201.82 529.187 201.82 523.315C201.82 517.444 207.166 512.668 214.088 512.668C221.011 512.668 226.356 517.444 226.356 523.315C225.831 529.187 220.485 533.962 214.088 533.962ZM210.364 524.936C210.572 524.936 210.775 524.875 210.948 524.759C211.121 524.644 211.256 524.48 211.336 524.287C211.415 524.095 211.436 523.884 211.395 523.68C211.355 523.476 211.255 523.289 211.108 523.141C210.961 522.994 210.773 522.894 210.569 522.854C210.365 522.813 210.154 522.834 209.962 522.913C209.769 522.993 209.605 523.128 209.49 523.301C209.374 523.474 209.312 523.677 209.312 523.885C209.307 524.025 209.33 524.164 209.381 524.294C209.432 524.424 209.509 524.542 209.608 524.641C209.707 524.74 209.825 524.817 209.955 524.868C210.085 524.919 210.224 524.942 210.364 524.936ZM217.812 523.841C217.812 524.049 217.751 524.252 217.635 524.425C217.52 524.598 217.355 524.733 217.163 524.813C216.971 524.892 216.76 524.913 216.556 524.873C216.352 524.832 216.164 524.732 216.017 524.585C215.87 524.438 215.77 524.25 215.73 524.046C215.689 523.842 215.71 523.631 215.789 523.439C215.869 523.247 216.004 523.082 216.177 522.967C216.35 522.851 216.553 522.79 216.761 522.79C217.039 522.793 217.304 522.905 217.5 523.102C217.697 523.298 217.809 523.563 217.812 523.841Z" fill="#EAEDF5"/>
<path d="M431.485 261.011C425.33 262.324 420.528 266.346 420.528 273.035V279.724C417.779 282.392 417.122 285.716 417.122 289.081C418.476 287.726 420.528 287.07 422.58 286.413C422.618 287.648 423.099 288.827 423.934 289.737L420.528 298.396C420.185 299.003 420.005 299.689 420.005 300.386C420.005 301.084 420.185 301.769 420.528 302.377C421.226 304.388 422.58 305.701 424.632 305.701C425.986 305.701 428.038 305.044 428.736 303.69C430.09 302.336 430.09 300.366 430.09 298.355L428.038 293.02C429.989 293.841 432.077 294.286 434.194 294.333C435.706 294.368 437.21 294.101 438.618 293.548C440.026 292.995 441.31 292.167 442.395 291.113C443.479 290.058 444.343 288.799 444.936 287.407C445.529 286.016 445.839 284.52 445.848 283.007C445.848 277.016 440.39 271.681 433.537 271.681C431.098 271.616 428.701 272.32 426.684 273.692C430.176 270.312 434.833 268.402 439.693 268.357C448.598 268.357 456.107 275.046 458.159 284.361L471.866 280.34L460.909 275.661L480.073 268.316L465.013 267.659C465.013 267.659 482.823 254.322 485.572 246.977L431.485 261.011ZM430.131 278.37C430.834 278.407 431.5 278.698 432.006 279.188C432.511 279.679 432.822 280.336 432.88 281.037C432.88 282.351 431.526 283.048 430.131 283.048C428.777 283.048 428.079 281.694 428.079 280.381C428.079 279.027 428.736 278.37 430.131 278.37Z" fill="#EAEDF5"/>
<path d="M329.842 322.47C342.154 318.001 351.136 311.298 354.466 298.46C339.92 299.03 328.703 304.024 319.195 314.671C314.199 320.421 310.733 327.338 309.118 334.782C307.453 340.346 308.549 343.151 314.157 345.955H353.896C352.231 332.504 345.528 323.566 329.842 322.47ZM316.391 336.973C315.809 336.941 315.259 336.695 314.847 336.283C314.435 335.87 314.189 335.32 314.157 334.738C314.196 334.158 314.444 333.613 314.855 333.202C315.266 332.791 315.812 332.543 316.391 332.504C316.984 332.504 317.552 332.739 317.971 333.158C318.391 333.577 318.626 334.146 318.626 334.738C318.626 335.331 318.391 335.899 317.971 336.318C317.552 336.737 316.984 336.973 316.391 336.973Z" fill="#EAEDF5"/>
<path d="M240.582 384.5C234.426 385.813 229.625 389.834 229.625 396.523V403.212C226.875 405.88 226.219 409.204 226.219 412.569C227.573 411.215 229.625 410.558 231.677 409.902C231.715 411.136 232.196 412.316 233.031 413.226L229.625 421.884C229.282 422.492 229.102 423.177 229.102 423.875C229.102 424.572 229.282 425.258 229.625 425.865C230.322 427.876 231.677 429.189 233.729 429.189C235.083 429.189 237.135 428.532 237.832 427.178C239.187 425.824 239.187 423.854 239.187 421.843L237.135 416.508C239.086 417.329 241.174 417.775 243.29 417.822C244.803 417.856 246.306 417.589 247.714 417.036C249.122 416.483 250.406 415.655 251.491 414.601C252.576 413.547 253.44 412.287 254.033 410.895C254.626 409.504 254.936 408.008 254.945 406.495C254.945 400.504 249.487 395.169 242.634 395.169C240.195 395.105 237.798 395.808 235.781 397.18C239.273 393.8 243.929 391.89 248.789 391.845C257.694 391.845 265.204 398.534 267.256 407.85L280.962 403.828L270.005 399.15L289.17 391.804L274.109 391.148C274.109 391.148 291.919 377.81 294.669 370.465L240.582 384.5ZM239.228 401.858C239.931 401.895 240.597 402.186 241.102 402.677C241.608 403.167 241.918 403.824 241.977 404.526C241.977 405.839 240.623 406.536 239.228 406.536C237.873 406.536 237.176 405.182 237.176 403.869C237.176 402.515 237.832 401.858 239.228 401.858Z" fill="#EAEDF5"/>
<path d="M296.517 449.169V445.444C297.395 447.237 298.743 448.759 300.417 449.846C302.091 450.934 304.029 451.548 306.024 451.622H318.73C323.813 451.622 329.509 462.751 332.05 465.818C333.934 462.751 337.132 452.236 342.215 451.622H356.192C360.617 451.622 363.815 449.169 366.357 444.218V446.671C366.347 451.456 364.492 456.053 361.179 459.505C357.865 462.957 353.348 464.998 348.568 465.205L336.519 495.436H327.011L313.692 466.431C309.137 466.382 304.784 464.545 301.571 461.316C298.358 458.086 296.543 453.724 296.517 449.169Z" fill="#EAEDF5"/>
<path fill-rule="evenodd" clip-rule="evenodd" d="M380.806 391.502C379.851 394.174 379.362 396.99 379.36 399.827C379.36 413.147 391.102 424.319 404.992 424.319C419.407 424.319 430.623 413.672 430.623 399.827C430.631 397.038 430.111 394.273 429.089 391.678C432.156 385.325 430.053 377.482 430.053 377.482C426.845 378.078 423.763 379.219 420.94 380.855C416.323 377.305 410.67 375.366 404.846 375.334C399.022 375.302 393.348 377.18 388.693 380.68C385.948 379.104 382.955 378.008 379.842 377.438C379.842 377.438 377.827 385.193 380.806 391.502ZM404.992 410.474C398.069 410.474 392.724 405.698 392.724 399.827C392.724 393.956 398.069 389.18 404.992 389.18C411.914 389.18 417.26 393.956 417.26 399.827C416.734 405.698 411.388 410.474 404.992 410.474ZM401.267 401.448C401.475 401.448 401.679 401.387 401.852 401.271C402.024 401.155 402.159 400.991 402.239 400.799C402.318 400.607 402.339 400.395 402.299 400.191C402.258 399.988 402.158 399.8 402.011 399.653C401.864 399.506 401.676 399.406 401.472 399.365C401.268 399.325 401.057 399.346 400.865 399.425C400.673 399.505 400.509 399.64 400.393 399.812C400.277 399.985 400.216 400.189 400.216 400.397C400.21 400.536 400.234 400.676 400.284 400.806C400.335 400.936 400.413 401.054 400.511 401.153C400.61 401.251 400.728 401.329 400.858 401.38C400.989 401.43 401.128 401.454 401.267 401.448H401.267ZM408.716 400.353C408.716 400.561 408.654 400.764 408.539 400.937C408.423 401.11 408.259 401.245 408.067 401.324C407.875 401.404 407.663 401.425 407.459 401.384C407.255 401.344 407.068 401.244 406.921 401.096C406.774 400.949 406.673 400.762 406.633 400.558C406.592 400.354 406.613 400.143 406.693 399.95C406.772 399.758 406.907 399.594 407.08 399.479C407.253 399.363 407.456 399.301 407.664 399.301C407.942 399.305 408.207 399.417 408.404 399.613C408.6 399.81 408.712 400.075 408.716 400.353Z" fill="#EAEDF5"/>
<path d="M105.613 325.68V321.956C106.492 323.749 107.84 325.27 109.514 326.358C111.188 327.446 113.126 328.06 115.121 328.134H127.827C132.91 328.134 138.605 339.263 141.147 342.33C143.031 339.263 146.229 328.747 151.312 328.134H165.288C169.714 328.134 172.912 325.68 175.453 320.729V323.183C175.443 327.968 173.589 332.565 170.275 336.017C166.962 339.469 162.445 341.51 157.665 341.716L145.616 371.948H136.108L122.789 342.943C118.234 342.894 113.88 341.057 110.667 337.827C107.455 334.598 105.639 330.235 105.613 325.68Z" fill="#EAEDF5"/>
<path fill-rule="evenodd" clip-rule="evenodd" d="M189.903 268.014C188.948 270.686 188.459 273.501 188.457 276.339C188.457 289.658 200.199 300.831 214.088 300.831C228.503 300.831 239.72 290.184 239.72 276.339C239.728 273.55 239.207 270.784 238.186 268.189C241.253 261.836 239.15 253.993 239.15 253.993C235.942 254.589 232.859 255.73 230.037 257.367C225.42 253.817 219.766 251.877 213.942 251.846C208.118 251.814 202.444 253.692 197.789 257.192C195.045 255.616 192.052 254.519 188.939 253.949C188.939 253.949 186.923 261.705 189.903 268.014ZM214.088 286.985C207.166 286.985 201.82 282.21 201.82 276.339C201.82 270.467 207.166 265.692 214.088 265.692C221.011 265.692 226.356 270.467 226.356 276.339C225.831 282.21 220.485 286.985 214.088 286.985ZM210.364 277.96C210.572 277.96 210.775 277.898 210.948 277.782C211.121 277.667 211.256 277.503 211.336 277.311C211.415 277.118 211.436 276.907 211.395 276.703C211.355 276.499 211.255 276.312 211.108 276.165C210.961 276.018 210.773 275.917 210.569 275.877C210.365 275.836 210.154 275.857 209.962 275.937C209.769 276.016 209.605 276.151 209.49 276.324C209.374 276.497 209.312 276.7 209.312 276.908C209.307 277.048 209.33 277.187 209.381 277.317C209.432 277.447 209.509 277.565 209.608 277.664C209.707 277.763 209.825 277.84 209.955 277.891C210.085 277.942 210.224 277.965 210.364 277.96ZM217.812 276.864C217.812 277.072 217.751 277.276 217.635 277.449C217.52 277.621 217.355 277.756 217.163 277.836C216.971 277.915 216.76 277.936 216.556 277.896C216.352 277.855 216.164 277.755 216.017 277.608C215.87 277.461 215.77 277.273 215.73 277.069C215.689 276.866 215.71 276.654 215.789 276.462C215.869 276.27 216.004 276.106 216.177 275.99C216.35 275.874 216.553 275.813 216.761 275.813C217.039 275.817 217.304 275.929 217.5 276.125C217.697 276.321 217.809 276.587 217.812 276.864Z" fill="#EAEDF5"/>
<path d="M138.939 198.982C151.251 194.513 160.233 187.809 163.563 174.972C149.016 175.541 137.8 180.536 128.292 191.183C123.296 196.933 119.83 203.85 118.215 211.294C116.55 216.858 117.645 219.662 123.254 222.466H162.993C161.328 209.015 154.625 200.077 138.939 198.982ZM125.488 213.484C124.906 213.452 124.356 213.207 123.944 212.794C123.531 212.382 123.286 211.832 123.254 211.25C123.293 210.67 123.541 210.124 123.952 209.714C124.363 209.303 124.909 209.055 125.488 209.015C126.081 209.015 126.649 209.251 127.068 209.67C127.487 210.089 127.723 210.657 127.723 211.25C127.723 211.843 127.487 212.411 127.068 212.83C126.649 213.249 126.081 213.484 125.488 213.484Z" fill="#EAEDF5"/>
<path d="M49.6785 261.011C43.5229 262.324 38.7216 266.346 38.7216 273.035V279.724C35.9721 282.392 35.3154 285.716 35.3154 289.081C36.6697 287.726 38.7215 287.07 40.7734 286.413C40.8118 287.648 41.2924 288.827 42.1277 289.737L38.7216 298.396C38.3786 299.003 38.1984 299.689 38.1984 300.386C38.1984 301.084 38.3786 301.769 38.7216 302.377C39.4192 304.388 40.7735 305.701 42.8253 305.701C44.1796 305.701 46.2315 305.044 46.9291 303.69C48.2833 302.336 48.2833 300.366 48.2833 298.355L46.2314 293.02C48.1826 293.841 50.2708 294.286 52.387 294.333C53.8992 294.368 55.4033 294.101 56.8113 293.548C58.2193 292.995 59.503 292.167 60.5878 291.113C61.6726 290.058 62.5367 288.799 63.1296 287.407C63.7226 286.016 64.0326 284.52 64.0415 283.007C64.0415 277.016 58.5835 271.681 51.7303 271.681C49.2917 271.616 46.8944 272.32 44.8772 273.692C48.3692 270.312 53.0262 268.402 57.886 268.357C66.791 268.357 74.3008 275.046 76.3527 284.361L90.0591 280.34L79.1022 275.661L98.2665 268.316L83.2059 267.659C83.2059 267.659 101.016 254.322 103.766 246.977L49.6785 261.011ZM48.3242 278.37C49.0275 278.407 49.6935 278.698 50.199 279.188C50.7045 279.679 51.0153 280.336 51.0737 281.037C51.0737 282.351 49.7194 283.048 48.3242 283.048C46.97 283.048 46.2723 281.694 46.2723 280.381C46.2723 279.027 46.9289 278.37 48.3242 278.37Z" fill="#EAEDF5"/>
<path d="M49.6785 14.0347C43.5229 15.3479 38.7216 19.3695 38.7216 26.0586V32.7476C35.9721 35.4151 35.3154 38.7391 35.3154 42.1041C36.6697 40.7499 38.7215 40.0933 40.7734 39.4367C40.8118 40.6712 41.2924 41.8509 42.1277 42.7607L38.7216 51.4195C38.3786 52.0268 38.1984 52.7124 38.1984 53.4098C38.1984 54.1073 38.3786 54.7929 38.7216 55.4001C39.4192 57.4109 40.7735 58.7241 42.8253 58.7241C44.1796 58.7241 46.2315 58.0675 46.9291 56.7133C48.2833 55.3591 48.2833 53.3893 48.2833 51.3785L46.2314 46.0437C48.1826 46.8643 50.2708 47.3098 52.387 47.3569C53.8992 47.3911 55.4033 47.124 56.8113 46.571C58.2193 46.018 59.503 45.1903 60.5878 44.1361C61.6726 43.0818 62.5367 41.8222 63.1296 40.4306C63.7226 39.039 64.0326 37.5432 64.0415 36.0306C64.0415 30.0392 58.5835 24.7043 51.7303 24.7043C49.2917 24.6397 46.8944 25.3431 44.8772 26.7152C48.3692 23.335 53.0262 21.4252 57.886 21.3803C66.791 21.3803 74.3008 28.0694 76.3527 37.3848L90.0591 33.3632L79.1022 28.685L98.2665 21.3393L83.2059 20.6827C83.2059 20.6827 101.016 7.34565 103.766 0L49.6785 14.0347ZM48.3242 31.3934C49.0275 31.4306 49.6935 31.7213 50.199 32.2117C50.7045 32.7021 51.0153 33.359 51.0737 34.0608C51.0737 35.374 49.7194 36.0716 48.3242 36.0716C46.97 36.0716 46.2723 34.7174 46.2723 33.4042C46.2723 32.05 46.9289 31.3934 48.3242 31.3934Z" fill="#EAEDF5"/>
<path d="M105.613 78.7037V74.9795C106.492 76.7724 107.84 78.2938 109.514 79.3816C111.188 80.4694 113.126 81.0831 115.121 81.1573H127.827C132.91 81.1573 138.605 92.2861 141.147 95.3531C143.031 92.2861 146.229 81.7707 151.312 81.1573H165.288C169.714 81.1573 172.912 78.7037 175.453 73.7527V76.2063C175.443 80.9912 173.589 85.588 170.275 89.04C166.962 92.4921 162.445 94.5336 157.665 94.7397L145.616 124.972H136.108L122.789 95.9666C118.234 95.9173 113.88 94.08 110.667 90.8507C107.455 87.6215 105.639 83.2589 105.613 78.7037Z" fill="#EAEDF5"/>
<path fill-rule="evenodd" clip-rule="evenodd" d="M-1.0006 144.526C-1.95526 147.197 -2.44436 150.013 -2.44652 152.85C-2.44652 166.17 9.29584 177.342 23.185 177.342C37.5999 177.342 48.8163 166.696 48.8163 152.85C48.8243 150.061 48.3039 147.296 47.2827 144.701C50.3497 138.348 48.2467 130.505 48.2467 130.505C45.0385 131.101 41.9562 132.242 39.1333 133.879C34.5164 130.328 28.8631 128.389 23.0391 128.357C17.215 128.326 11.5412 130.204 6.886 133.703C4.14156 132.128 1.14853 131.031 -1.96446 130.461C-1.96446 130.461 -3.97998 138.216 -1.0006 144.526ZM23.185 163.497C16.2623 163.497 10.9169 158.721 10.9169 152.85C10.9169 146.979 16.2623 142.203 23.185 142.203C30.1076 142.203 35.4529 146.979 35.4529 152.85C34.9272 158.721 29.5818 163.497 23.185 163.497V163.497ZM19.4607 154.471C19.6687 154.471 19.872 154.41 20.0449 154.294C20.2179 154.179 20.3526 154.014 20.4321 153.822C20.5117 153.63 20.5325 153.419 20.492 153.215C20.4514 153.011 20.3513 152.823 20.2042 152.676C20.0572 152.529 19.8698 152.429 19.6658 152.389C19.4618 152.348 19.2504 152.369 19.0582 152.448C18.8661 152.528 18.7019 152.663 18.5863 152.836C18.4708 153.009 18.4091 153.212 18.4091 153.42C18.4035 153.559 18.4269 153.699 18.4778 153.829C18.5287 153.959 18.6059 154.077 18.7047 154.176C18.8035 154.275 18.9217 154.352 19.0518 154.403C19.1819 154.454 19.3211 154.477 19.4607 154.471V154.471ZM26.9091 153.376C26.9091 153.584 26.8475 153.787 26.7319 153.96C26.6164 154.133 26.4522 154.268 26.26 154.348C26.0679 154.427 25.8565 154.448 25.6525 154.407C25.4485 154.367 25.2611 154.267 25.114 154.12C24.967 153.973 24.8668 153.785 24.8262 153.581C24.7856 153.377 24.8064 153.166 24.886 152.974C24.9656 152.782 25.1004 152.617 25.2733 152.502C25.4463 152.386 25.6496 152.324 25.8576 152.324C26.1353 152.328 26.4005 152.44 26.5969 152.637C26.7933 152.833 26.9053 153.098 26.9091 153.376V153.376Z" fill="#EAEDF5"/>
<path d="M138.939 445.958C151.251 441.489 160.233 434.786 163.563 421.948C149.016 422.518 137.8 427.513 128.292 438.16C123.296 443.909 119.83 450.826 118.215 458.27C116.55 463.835 117.645 466.639 123.254 469.443H162.993C161.328 455.992 154.625 447.054 138.939 445.958ZM125.488 460.461C124.906 460.429 124.356 460.183 123.944 459.771C123.531 459.359 123.286 458.809 123.254 458.227C123.293 457.647 123.541 457.101 123.952 456.69C124.363 456.279 124.909 456.031 125.488 455.992C126.081 455.992 126.649 456.227 127.068 456.646C127.487 457.065 127.723 457.634 127.723 458.227C127.723 458.819 127.487 459.387 127.068 459.807C126.649 460.226 126.081 460.461 125.488 460.461Z" fill="#EAEDF5"/>
<path d="M49.6785 507.988C43.5229 509.301 38.7216 513.323 38.7216 520.012V526.701C35.9721 529.368 35.3154 532.692 35.3154 536.057C36.6697 534.703 38.7215 534.046 40.7734 533.39C40.8118 534.624 41.2924 535.804 42.1277 536.714L38.7216 545.373C38.3786 545.98 38.1984 546.666 38.1984 547.363C38.1984 548.06 38.3786 548.746 38.7216 549.353C39.4192 551.364 40.7735 552.677 42.8253 552.677C44.1796 552.677 46.2315 552.021 46.9291 550.666C48.2833 549.312 48.2833 547.342 48.2833 545.332L46.2314 539.997C48.1826 540.817 50.2708 541.263 52.387 541.31C53.8992 541.344 55.4033 541.077 56.8113 540.524C58.2193 539.971 59.503 539.143 60.5878 538.089C61.6726 537.035 62.5367 535.775 63.1296 534.384C63.7226 532.992 64.0326 531.496 64.0415 529.984C64.0415 523.992 58.5835 518.658 51.7303 518.658C49.2917 518.593 46.8944 519.296 44.8772 520.668C48.3692 517.288 53.0262 515.378 57.886 515.333C66.791 515.333 74.3008 522.023 76.3527 531.338L90.0591 527.316L79.1022 522.638L98.2665 515.292L83.2059 514.636C83.2059 514.636 101.016 501.299 103.766 493.953L49.6785 507.988ZM48.3242 525.347C49.0275 525.384 49.6935 525.674 50.199 526.165C50.7045 526.655 51.0153 527.312 51.0737 528.014C51.0737 529.327 49.7194 530.025 48.3242 530.025C46.97 530.025 46.2723 528.671 46.2723 527.357C46.2723 526.003 46.9289 525.347 48.3242 525.347Z" fill="#EAEDF5"/>
<path d="M49.6785 261.011C43.5229 262.324 38.7216 266.346 38.7216 273.035V279.724C35.9721 282.392 35.3154 285.716 35.3154 289.081C36.6697 287.726 38.7215 287.07 40.7734 286.413C40.8118 287.648 41.2924 288.827 42.1277 289.737L38.7216 298.396C38.3786 299.003 38.1984 299.689 38.1984 300.386C38.1984 301.084 38.3786 301.769 38.7216 302.377C39.4192 304.388 40.7735 305.701 42.8253 305.701C44.1796 305.701 46.2315 305.044 46.9291 303.69C48.2833 302.336 48.2833 300.366 48.2833 298.355L46.2314 293.02C48.1826 293.841 50.2708 294.286 52.387 294.333C53.8992 294.368 55.4033 294.101 56.8113 293.548C58.2193 292.995 59.503 292.167 60.5878 291.113C61.6726 290.058 62.5367 288.799 63.1296 287.407C63.7226 286.016 64.0326 284.52 64.0415 283.007C64.0415 277.016 58.5835 271.681 51.7303 271.681C49.2917 271.616 46.8944 272.32 44.8772 273.692C48.3692 270.312 53.0262 268.402 57.886 268.357C66.791 268.357 74.3008 275.046 76.3527 284.361L90.0591 280.34L79.1022 275.661L98.2665 268.316L83.2059 267.659C83.2059 267.659 101.016 254.322 103.766 246.977L49.6785 261.011ZM48.3242 278.37C49.0275 278.407 49.6935 278.698 50.199 279.188C50.7045 279.679 51.0153 280.336 51.0737 281.037C51.0737 282.351 49.7194 283.048 48.3242 283.048C46.97 283.048 46.2723 281.694 46.2723 280.381C46.2723 279.027 46.9289 278.37 48.3242 278.37Z" fill="#EAEDF5"/>
<path d="M105.613 325.68V321.956C106.492 323.749 107.84 325.27 109.514 326.358C111.188 327.446 113.126 328.06 115.121 328.134H127.827C132.91 328.134 138.605 339.263 141.147 342.33C143.031 339.263 146.229 328.747 151.312 328.134H165.288C169.714 328.134 172.912 325.68 175.453 320.729V323.183C175.443 327.968 173.589 332.565 170.275 336.017C166.962 339.469 162.445 341.51 157.665 341.716L145.616 371.948H136.108L122.789 342.943C118.234 342.894 113.88 341.057 110.667 337.827C107.455 334.598 105.639 330.235 105.613 325.68Z" fill="#EAEDF5"/>
<path fill-rule="evenodd" clip-rule="evenodd" d="M-1.0006 391.502C-1.95526 394.174 -2.44436 396.99 -2.44652 399.827C-2.44652 413.147 9.29584 424.319 23.185 424.319C37.5999 424.319 48.8163 413.672 48.8163 399.827C48.8243 397.038 48.3039 394.273 47.2827 391.678C50.3497 385.325 48.2467 377.482 48.2467 377.482C45.0385 378.078 41.9562 379.219 39.1333 380.855C34.5164 377.305 28.8631 375.366 23.0391 375.334C17.215 375.302 11.5412 377.18 6.886 380.68C4.14156 379.104 1.14853 378.008 -1.96446 377.438C-1.96446 377.438 -3.97998 385.193 -1.0006 391.502ZM23.185 410.474C16.2623 410.474 10.9169 405.698 10.9169 399.827C10.9169 393.956 16.2623 389.18 23.185 389.18C30.1076 389.18 35.4529 393.956 35.4529 399.827C34.9272 405.698 29.5818 410.474 23.185 410.474ZM19.4607 401.448C19.6687 401.448 19.872 401.387 20.0449 401.271C20.2179 401.155 20.3526 400.991 20.4321 400.799C20.5117 400.607 20.5325 400.395 20.492 400.191C20.4514 399.988 20.3513 399.8 20.2042 399.653C20.0572 399.506 19.8698 399.406 19.6658 399.365C19.4618 399.325 19.2504 399.346 19.0582 399.425C18.8661 399.505 18.7019 399.64 18.5863 399.812C18.4708 399.985 18.4091 400.189 18.4091 400.397C18.4035 400.536 18.4269 400.675 18.4778 400.806C18.5287 400.936 18.6059 401.054 18.7047 401.153C18.8035 401.251 18.9217 401.329 19.0518 401.38C19.1819 401.43 19.3211 401.454 19.4607 401.448ZM26.9091 400.353C26.9091 400.561 26.8475 400.764 26.7319 400.937C26.6164 401.11 26.4522 401.245 26.26 401.324C26.0679 401.404 25.8565 401.425 25.6525 401.384C25.4485 401.344 25.2611 401.244 25.114 401.096C24.967 400.949 24.8668 400.762 24.8262 400.558C24.7856 400.354 24.8064 400.143 24.886 399.95C24.9656 399.758 25.1004 399.594 25.2733 399.479C25.4463 399.363 25.6496 399.301 25.8576 399.301C26.1353 399.305 26.4005 399.417 26.5969 399.613C26.7933 399.81 26.9053 400.075 26.9091 400.353Z" fill="#EAEDF5"/>
</svg>
