<svg width="251" height="996" viewBox="0 0 251 996" fill="none" xmlns="http://www.w3.org/2000/svg">
<path d="M243.213 209.528C237.057 210.841 232.256 214.863 232.256 221.552V228.241C229.506 230.908 228.85 234.232 228.85 237.597C230.204 236.243 232.256 235.587 234.308 234.93C234.346 236.165 234.827 237.344 235.662 238.254L232.256 246.913C231.913 247.52 231.733 248.206 231.733 248.903C231.733 249.601 231.913 250.286 232.256 250.894C232.953 252.904 234.308 254.218 236.359 254.218C237.714 254.218 239.766 253.561 240.463 252.207C241.817 250.852 241.817 248.883 241.817 246.872L239.766 241.537C241.717 242.358 243.805 242.803 245.921 242.85C247.433 242.884 248.937 242.617 250.345 242.064C251.753 241.511 253.037 240.684 254.122 239.629C255.207 238.575 256.071 237.316 256.664 235.924C257.257 234.532 257.567 233.037 257.576 231.524C257.576 225.533 252.118 220.198 245.264 220.198C242.826 220.133 240.428 220.837 238.411 222.209C241.903 218.828 246.56 216.919 251.42 216.874C260.325 216.874 267.835 223.563 269.887 232.878L283.593 228.857L272.636 224.178L291.801 216.833L276.74 216.176C276.74 216.176 294.55 202.839 297.3 195.493L243.213 209.528ZM241.858 226.887C242.562 226.924 243.228 227.215 243.733 227.705C244.239 228.195 244.549 228.852 244.608 229.554C244.608 230.867 243.254 231.565 241.858 231.565C240.504 231.565 239.806 230.211 239.806 228.898C239.806 227.543 240.463 226.887 241.858 226.887Z" fill="#EAEDF5"/>
<path fill-rule="evenodd" clip-rule="evenodd" d="M1.6303 216.531C0.675629 219.202 0.186564 222.018 0.1844 224.855C0.1844 238.175 11.9267 249.348 25.8158 249.348C40.2307 249.348 51.4471 238.701 51.4471 224.855C51.4551 222.066 50.9348 219.301 49.9136 216.706C52.9806 210.353 50.8775 202.51 50.8775 202.51C47.6693 203.106 44.587 204.247 41.7641 205.884C37.1472 202.334 31.494 200.394 25.67 200.362C19.846 200.331 14.172 202.209 9.51682 205.709C6.77238 204.133 3.77934 203.036 0.666352 202.466C0.666352 202.466 -1.3491 210.221 1.6303 216.531ZM25.8158 235.502C18.8931 235.502 13.5478 230.727 13.5478 224.855C13.5478 218.984 18.8931 214.209 25.8158 214.209C32.7384 214.209 38.0838 218.984 38.0838 224.855C37.558 230.727 32.2126 235.502 25.8158 235.502ZM22.0916 226.477C22.2995 226.477 22.5028 226.415 22.6758 226.299C22.8487 226.184 22.9835 226.02 23.063 225.827C23.1426 225.635 23.1634 225.424 23.1229 225.22C23.0823 225.016 22.9822 224.828 22.8351 224.681C22.688 224.534 22.5007 224.434 22.2967 224.394C22.0927 224.353 21.8813 224.374 21.6891 224.453C21.497 224.533 21.3328 224.668 21.2172 224.841C21.1017 225.014 21.04 225.217 21.04 225.425C21.0344 225.565 21.0578 225.704 21.1087 225.834C21.1595 225.964 21.2368 226.082 21.3356 226.181C21.4343 226.28 21.5525 226.357 21.6826 226.408C21.8127 226.459 21.952 226.482 22.0916 226.477ZM29.54 225.381C29.54 225.589 29.4783 225.792 29.3628 225.965C29.2472 226.138 29.083 226.273 28.8908 226.353C28.6987 226.432 28.4873 226.453 28.2833 226.413C28.0793 226.372 27.8919 226.272 27.7449 226.125C27.5978 225.978 27.4976 225.79 27.4571 225.586C27.4165 225.382 27.4373 225.171 27.5169 224.979C27.5965 224.787 27.7313 224.622 27.9042 224.507C28.0771 224.391 28.2805 224.33 28.4884 224.33C28.7661 224.333 29.0314 224.445 29.2278 224.642C29.4242 224.838 29.5362 225.103 29.54 225.381Z" fill="#EAEDF5"/>
<path d="M141.57 24.0103C153.882 19.5412 162.864 12.8376 166.194 0C151.647 0.56958 140.431 5.56441 130.923 16.2113C125.927 21.9612 122.461 28.878 120.846 36.322C119.181 41.8865 120.276 44.6906 125.885 47.4947H165.624C163.959 34.0437 157.256 25.1056 141.57 24.0103ZM128.119 38.5128C127.537 38.4807 126.987 38.235 126.575 37.8227C126.162 37.4104 125.917 36.8605 125.885 36.2783C125.924 35.6986 126.172 35.1528 126.583 34.742C126.994 34.3312 127.539 34.0831 128.119 34.0437C128.711 34.045 129.278 34.281 129.696 34.6999C130.114 35.1188 130.349 35.6864 130.349 36.2783C130.349 36.8701 130.114 37.4377 129.696 37.8567C129.278 38.2756 128.711 38.5115 128.119 38.5128Z" fill="#EAEDF5"/>
<path d="M52.3095 86.0398C46.154 87.353 41.3526 91.3747 41.3526 98.0637V104.753C38.6032 107.42 37.9465 110.744 37.9465 114.109C39.3008 112.755 41.3526 112.098 43.4045 111.442C43.4429 112.676 43.9235 113.856 44.7588 114.766L41.3527 123.425C41.0097 124.032 40.8295 124.718 40.8295 125.415C40.8295 126.112 41.0097 126.798 41.3527 127.405C42.0503 129.416 43.4045 130.729 45.4564 130.729C46.8106 130.729 48.8625 130.073 49.5601 128.718C50.9143 127.364 50.9143 125.394 50.9143 123.384L48.8625 118.049C50.8136 118.869 52.9019 119.315 55.0181 119.362C56.5303 119.396 58.0343 119.129 59.4423 118.576C60.8503 118.023 62.1341 117.195 63.2189 116.141C64.3037 115.087 65.1677 113.827 65.7607 112.436C66.3537 111.044 66.6637 109.548 66.6726 108.036C66.6726 102.044 61.2146 96.7095 54.3615 96.7095C51.9228 96.6449 49.5255 97.3483 47.5083 98.7203C51.0003 95.3401 55.6572 93.4304 60.517 93.3855C69.422 93.3855 76.9319 100.075 78.9838 109.39L92.6902 105.368L81.7332 100.69L100.898 93.3444L85.837 92.6878C85.837 92.6878 103.647 79.3508 106.397 72.0051L52.3095 86.0398ZM50.9553 103.399C51.6586 103.436 52.3246 103.726 52.8301 104.217C53.3355 104.707 53.6463 105.364 53.7048 106.066C53.7048 107.379 52.3505 108.077 50.9553 108.077C49.601 108.077 48.9034 106.723 48.9034 105.409C48.9034 104.055 49.56 103.399 50.9553 103.399Z" fill="#EAEDF5"/>
<path d="M108.244 150.709V146.985C109.123 148.778 110.471 150.299 112.145 151.387C113.819 152.475 115.757 153.088 117.752 153.162H130.458C135.541 153.162 141.237 164.291 143.778 167.358C145.662 164.291 148.86 153.776 153.943 153.162H167.919C172.345 153.162 175.543 150.709 178.084 145.758V148.211C178.074 152.996 176.22 157.593 172.906 161.045C169.593 164.497 165.076 166.539 160.296 166.745L148.247 196.977H138.739L125.42 167.972C120.865 167.922 116.511 166.085 113.298 162.856C110.086 159.627 108.27 155.264 108.244 150.709Z" fill="#EAEDF5"/>
<path fill-rule="evenodd" clip-rule="evenodd" d="M192.534 93.0424C191.579 95.7141 191.09 98.5299 191.088 101.367C191.088 114.687 202.83 125.859 216.719 125.859C231.134 125.859 242.35 115.212 242.35 101.367C242.358 98.5782 241.838 95.813 240.817 93.2177C243.884 86.8646 241.781 79.0218 241.781 79.0218C238.573 79.6177 235.49 80.7588 232.667 82.3955C228.051 78.8452 222.397 76.9058 216.573 76.8742C210.749 76.8425 205.075 78.7204 200.42 82.2203C197.676 80.6444 194.683 79.5479 191.57 78.978C191.57 78.978 189.554 86.7331 192.534 93.0424ZM216.719 112.014C209.796 112.014 204.451 107.238 204.451 101.367C204.451 95.496 209.796 90.7202 216.719 90.7202C223.642 90.7202 228.987 95.496 228.987 101.367C228.461 107.238 223.116 112.014 216.719 112.014ZM212.995 102.988C213.203 102.988 213.406 102.927 213.579 102.811C213.752 102.695 213.887 102.531 213.966 102.339C214.046 102.147 214.067 101.936 214.026 101.732C213.986 101.528 213.885 101.34 213.738 101.193C213.591 101.046 213.404 100.946 213.2 100.905C212.996 100.865 212.785 100.886 212.592 100.965C212.4 101.045 212.236 101.18 212.121 101.352C212.005 101.525 211.943 101.729 211.943 101.937C211.938 102.076 211.961 102.215 212.012 102.346C212.063 102.476 212.14 102.594 212.239 102.693C212.338 102.791 212.456 102.869 212.586 102.92C212.716 102.97 212.855 102.994 212.995 102.988L212.995 102.988ZM220.443 101.893C220.443 102.101 220.382 102.304 220.266 102.477C220.151 102.65 219.986 102.785 219.794 102.864C219.602 102.944 219.391 102.965 219.187 102.924C218.983 102.884 218.795 102.784 218.648 102.636C218.501 102.489 218.401 102.302 218.36 102.098C218.32 101.894 218.341 101.683 218.42 101.49C218.5 101.298 218.635 101.134 218.808 101.019C218.981 100.903 219.184 100.841 219.392 100.841C219.669 100.845 219.935 100.957 220.131 101.154C220.328 101.35 220.44 101.615 220.443 101.893L220.443 101.893Z" fill="#EAEDF5"/>
<path d="M243.213 456.504C237.057 457.818 232.256 461.839 232.256 468.528V475.217C229.506 477.885 228.85 481.209 228.85 484.574C230.204 483.22 232.256 482.563 234.308 481.906C234.346 483.141 234.827 484.321 235.662 485.23L232.256 493.889C231.913 494.496 231.733 495.182 231.733 495.88C231.733 496.577 231.913 497.263 232.256 497.87C232.953 499.881 234.308 501.194 236.359 501.194C237.714 501.194 239.766 500.537 240.463 499.183C241.817 497.829 241.817 495.859 241.817 493.848L239.766 488.513C241.717 489.334 243.805 489.779 245.921 489.827C247.433 489.861 248.937 489.594 250.345 489.041C251.753 488.488 253.037 487.66 254.122 486.606C255.207 485.552 256.071 484.292 256.664 482.9C257.257 481.509 257.567 480.013 257.576 478.5C257.576 472.509 252.118 467.174 245.265 467.174C242.826 467.109 240.429 467.813 238.411 469.185C241.903 465.805 246.56 463.895 251.42 463.85C260.325 463.85 267.835 470.539 269.887 479.855L283.593 475.833L272.636 471.155L291.801 463.809L276.74 463.152C276.74 463.152 294.55 449.815 297.3 442.47L243.213 456.504ZM241.858 473.863C242.562 473.9 243.228 474.191 243.733 474.681C244.239 475.172 244.549 475.829 244.608 476.531C244.608 477.844 243.254 478.541 241.858 478.541C240.504 478.541 239.806 477.187 239.806 475.874C239.806 474.52 240.463 473.863 241.858 473.863Z" fill="#EAEDF5"/>
<path d="M243.213 209.528C237.057 210.841 232.256 214.863 232.256 221.552V228.241C229.506 230.908 228.85 234.232 228.85 237.597C230.204 236.243 232.256 235.586 234.308 234.93C234.346 236.164 234.827 237.344 235.662 238.254L232.256 246.913C231.913 247.52 231.733 248.206 231.733 248.903C231.733 249.6 231.913 250.286 232.256 250.893C232.953 252.904 234.308 254.217 236.359 254.217C237.714 254.217 239.766 253.561 240.463 252.206C241.817 250.852 241.817 248.882 241.817 246.872L239.766 241.537C241.717 242.357 243.805 242.803 245.921 242.85C247.433 242.884 248.937 242.617 250.345 242.064C251.753 241.511 253.037 240.683 254.122 239.629C255.207 238.575 256.071 237.315 256.664 235.924C257.257 234.532 257.567 233.036 257.576 231.524C257.576 225.532 252.118 220.198 245.264 220.198C242.826 220.133 240.428 220.836 238.411 222.208C241.903 218.828 246.56 216.918 251.42 216.874C260.325 216.874 267.835 223.563 269.887 232.878L283.593 228.856L272.636 224.178L291.801 216.832L276.74 216.176C276.74 216.176 294.55 202.839 297.3 195.493L243.213 209.528ZM241.858 226.887C242.562 226.924 243.228 227.214 243.733 227.705C244.239 228.195 244.549 228.852 244.608 229.554C244.608 230.867 243.254 231.565 241.858 231.565C240.504 231.565 239.806 230.211 239.806 228.897C239.806 227.543 240.463 226.887 241.858 226.887Z" fill="#EAEDF5"/>
<path d="M141.57 270.987C153.882 266.518 162.864 259.814 166.194 246.976C151.647 247.546 140.431 252.541 130.923 263.188C125.927 268.938 122.461 275.854 120.846 283.298C119.181 288.863 120.276 291.667 125.885 294.471H165.624C163.959 281.02 157.256 272.082 141.57 270.987ZM128.119 285.489C127.537 285.457 126.987 285.211 126.575 284.799C126.162 284.387 125.917 283.837 125.885 283.255C125.924 282.675 126.172 282.129 126.583 281.718C126.994 281.307 127.539 281.059 128.119 281.02C128.711 281.021 129.278 281.257 129.696 281.676C130.114 282.095 130.349 282.663 130.349 283.255C130.349 283.846 130.114 284.414 129.696 284.833C129.278 285.252 128.711 285.488 128.119 285.489Z" fill="#EAEDF5"/>
<path d="M52.3095 333.016C46.154 334.329 41.3526 338.351 41.3526 345.04V351.729C38.6032 354.397 37.9465 357.721 37.9465 361.086C39.3008 359.731 41.3526 359.075 43.4045 358.418C43.4429 359.653 43.9235 360.832 44.7588 361.742L41.3527 370.401C41.0097 371.008 40.8295 371.694 40.8295 372.391C40.8295 373.089 41.0097 373.774 41.3527 374.382C42.0503 376.392 43.4045 377.706 45.4564 377.706C46.8106 377.706 48.8625 377.049 49.5601 375.695C50.9143 374.341 50.9143 372.371 50.9143 370.36L48.8625 365.025C50.8136 365.846 52.9019 366.291 55.0181 366.338C56.5303 366.373 58.0343 366.105 59.4423 365.552C60.8503 364.999 62.1341 364.172 63.2189 363.118C64.3037 362.063 65.1677 360.804 65.7607 359.412C66.3537 358.02 66.6637 356.525 66.6726 355.012C66.6726 349.021 61.2146 343.686 54.3615 343.686C51.9228 343.621 49.5255 344.325 47.5083 345.697C51.0003 342.316 55.6572 340.407 60.517 340.362C69.422 340.362 76.9319 347.051 78.9838 356.366L92.6902 352.345L81.7333 347.666L100.898 340.321L85.837 339.664C85.837 339.664 103.647 326.327 106.397 318.981L52.3095 333.016ZM50.9553 350.375C51.6586 350.412 52.3246 350.703 52.8301 351.193C53.3355 351.684 53.6463 352.34 53.7048 353.042C53.7048 354.355 52.3505 355.053 50.9553 355.053C49.601 355.053 48.9034 353.699 48.9034 352.386C48.9034 351.031 49.56 350.375 50.9553 350.375Z" fill="#EAEDF5"/>
<path d="M108.244 397.685V393.961C109.123 395.754 110.471 397.275 112.145 398.363C113.819 399.451 115.757 400.065 117.752 400.139H130.458C135.541 400.139 141.237 411.268 143.778 414.335C145.662 411.268 148.86 400.752 153.943 400.139H167.919C172.345 400.139 175.543 397.685 178.084 392.734V395.188C178.074 399.973 176.22 404.569 172.906 408.021C169.593 411.474 165.076 413.515 160.296 413.721L148.247 443.953H138.739L125.42 414.948C120.865 414.899 116.511 413.061 113.298 409.832C110.086 406.603 108.27 402.24 108.244 397.685Z" fill="#EAEDF5"/>
<path fill-rule="evenodd" clip-rule="evenodd" d="M192.534 340.019C191.579 342.69 191.09 345.506 191.088 348.343C191.088 361.663 202.83 372.836 216.719 372.836C231.134 372.836 242.35 362.189 242.35 348.343C242.358 345.554 241.838 342.789 240.817 340.194C243.884 333.841 241.781 325.998 241.781 325.998C238.573 326.594 235.49 327.735 232.667 329.372C228.051 325.822 222.397 323.882 216.573 323.85C210.749 323.819 205.075 325.697 200.42 329.197C197.676 327.621 194.683 326.524 191.57 325.954C191.57 325.954 189.554 333.709 192.534 340.019ZM216.719 358.99C209.796 358.99 204.451 354.215 204.451 348.343C204.451 342.472 209.796 337.697 216.719 337.697C223.642 337.697 228.987 342.472 228.987 348.343C228.461 354.215 223.116 358.99 216.719 358.99ZM212.995 349.965C213.203 349.965 213.406 349.903 213.579 349.787C213.752 349.672 213.887 349.508 213.966 349.315C214.046 349.123 214.067 348.912 214.026 348.708C213.986 348.504 213.885 348.317 213.738 348.169C213.591 348.022 213.404 347.922 213.2 347.882C212.996 347.841 212.785 347.862 212.592 347.942C212.4 348.021 212.236 348.156 212.121 348.329C212.005 348.502 211.943 348.705 211.943 348.913C211.938 349.053 211.961 349.192 212.012 349.322C212.063 349.452 212.14 349.57 212.239 349.669C212.338 349.768 212.456 349.845 212.586 349.896C212.716 349.947 212.855 349.97 212.995 349.965H212.995ZM220.443 348.869C220.443 349.077 220.382 349.281 220.266 349.453C220.151 349.626 219.986 349.761 219.794 349.841C219.602 349.92 219.391 349.941 219.187 349.901C218.983 349.86 218.795 349.76 218.648 349.613C218.501 349.466 218.401 349.278 218.36 349.074C218.32 348.87 218.341 348.659 218.42 348.467C218.5 348.275 218.635 348.11 218.808 347.995C218.981 347.879 219.184 347.818 219.392 347.818C219.669 347.821 219.935 347.933 220.131 348.13C220.328 348.326 220.44 348.592 220.443 348.869H220.443Z" fill="#EAEDF5"/>
<path fill-rule="evenodd" clip-rule="evenodd" d="M1.6303 216.53C0.675629 219.202 0.186564 222.018 0.1844 224.855C0.1844 238.175 11.9267 249.347 25.8158 249.347C40.2307 249.347 51.4471 238.7 51.4471 224.855C51.4551 222.066 50.9348 219.301 49.9136 216.706C52.9806 210.353 50.8775 202.51 50.8775 202.51C47.6693 203.106 44.587 204.247 41.7641 205.884C37.1472 202.333 31.494 200.394 25.67 200.362C19.846 200.331 14.172 202.208 9.51682 205.708C6.77238 204.132 3.77934 203.036 0.666352 202.466C0.666352 202.466 -1.3491 210.221 1.6303 216.53ZM25.8158 235.502C18.8931 235.502 13.5478 230.726 13.5478 224.855C13.5478 218.984 18.8931 214.208 25.8158 214.208C32.7384 214.208 38.0838 218.984 38.0838 224.855C37.558 230.726 32.2126 235.502 25.8158 235.502ZM22.0916 226.476C22.2995 226.476 22.5028 226.415 22.6758 226.299C22.8487 226.184 22.9835 226.019 23.063 225.827C23.1426 225.635 23.1634 225.424 23.1229 225.22C23.0823 225.016 22.9822 224.828 22.8351 224.681C22.688 224.534 22.5007 224.434 22.2967 224.393C22.0927 224.353 21.8813 224.374 21.6891 224.453C21.497 224.533 21.3328 224.668 21.2172 224.841C21.1017 225.013 21.04 225.217 21.04 225.425C21.0344 225.564 21.0578 225.704 21.1087 225.834C21.1595 225.964 21.2368 226.082 21.3356 226.181C21.4343 226.28 21.5525 226.357 21.6826 226.408C21.8127 226.458 21.952 226.482 22.0916 226.476ZM29.54 225.381C29.54 225.589 29.4783 225.792 29.3628 225.965C29.2472 226.138 29.083 226.273 28.8908 226.352C28.6987 226.432 28.4873 226.453 28.2833 226.412C28.0793 226.372 27.8919 226.272 27.7449 226.125C27.5978 225.977 27.4976 225.79 27.4571 225.586C27.4165 225.382 27.4373 225.171 27.5169 224.979C27.5965 224.786 27.7313 224.622 27.9042 224.507C28.0771 224.391 28.2805 224.329 28.4884 224.329C28.7661 224.333 29.0314 224.445 29.2278 224.642C29.4242 224.838 29.5362 225.103 29.54 225.381Z" fill="#EAEDF5"/>
<path d="M243.213 703.481C237.057 704.794 232.256 708.816 232.256 715.505V722.194C229.506 724.862 228.85 728.186 228.85 731.551C230.204 730.196 232.256 729.54 234.308 728.883C234.346 730.118 234.827 731.297 235.662 732.207L232.256 740.866C231.913 741.473 231.733 742.159 231.733 742.856C231.733 743.554 231.913 744.239 232.256 744.847C232.954 746.857 234.308 748.171 236.36 748.171C237.714 748.171 239.766 747.514 240.463 746.16C241.818 744.806 241.818 742.836 241.818 740.825L239.766 735.49C241.717 736.311 243.805 736.756 245.921 736.803C247.434 736.838 248.938 736.571 250.346 736.018C251.754 735.465 253.037 734.637 254.122 733.583C255.207 732.528 256.071 731.269 256.664 729.877C257.257 728.486 257.567 726.99 257.576 725.477C257.576 719.486 252.118 714.151 245.265 714.151C242.826 714.086 240.429 714.79 238.412 716.162C241.904 712.782 246.561 710.872 251.42 710.827C260.325 710.827 267.835 717.516 269.887 726.831L283.593 722.81L272.637 718.132L291.801 710.786L276.74 710.129C276.74 710.129 294.55 696.792 297.3 689.447L243.213 703.481ZM241.859 720.84C242.562 720.877 243.228 721.168 243.733 721.658C244.239 722.149 244.55 722.806 244.608 723.507C244.608 724.821 243.254 725.518 241.859 725.518C240.504 725.518 239.807 724.164 239.807 722.851C239.807 721.497 240.463 720.84 241.859 720.84Z" fill="#EAEDF5"/>
<path d="M243.213 456.505C237.057 457.818 232.256 461.84 232.256 468.529V475.218C229.506 477.885 228.85 481.209 228.85 484.574C230.204 483.22 232.256 482.563 234.308 481.907C234.346 483.141 234.827 484.321 235.662 485.231L232.256 493.889C231.913 494.497 231.733 495.182 231.733 495.88C231.733 496.577 231.913 497.263 232.256 497.87C232.954 499.881 234.308 501.194 236.36 501.194C237.714 501.194 239.766 500.538 240.463 499.183C241.818 497.829 241.818 495.859 241.818 493.848L239.766 488.514C241.717 489.334 243.805 489.78 245.921 489.827C247.434 489.861 248.938 489.594 250.346 489.041C251.754 488.488 253.037 487.66 254.122 486.606C255.207 485.552 256.071 484.292 256.664 482.901C257.257 481.509 257.567 480.013 257.576 478.501C257.576 472.509 252.118 467.174 245.265 467.174C242.826 467.11 240.429 467.813 238.412 469.185C241.904 465.805 246.561 463.895 251.42 463.85C260.325 463.85 267.835 470.539 269.887 479.855L283.593 475.833L272.637 471.155L291.801 463.809L276.74 463.153C276.74 463.153 294.55 449.816 297.3 442.47L243.213 456.505ZM241.859 473.863C242.562 473.901 243.228 474.191 243.733 474.682C244.239 475.172 244.55 475.829 244.608 476.531C244.608 477.844 243.254 478.542 241.859 478.542C240.504 478.542 239.807 477.187 239.807 475.874C239.807 474.52 240.463 473.863 241.859 473.863Z" fill="#EAEDF5"/>
<path d="M141.57 517.963C153.882 513.494 162.864 506.791 166.194 493.953C151.647 494.523 140.431 499.517 130.923 510.164C125.927 515.914 122.461 522.831 120.846 530.275C119.181 535.84 120.276 538.644 125.885 541.448H165.624C163.959 527.997 157.256 519.059 141.57 517.963ZM128.119 532.466C127.537 532.434 126.987 532.188 126.575 531.776C126.162 531.364 125.917 530.814 125.885 530.231C125.924 529.652 126.172 529.106 126.583 528.695C126.994 528.284 127.539 528.036 128.119 527.997C128.711 527.998 129.278 528.234 129.696 528.653C130.114 529.072 130.349 529.64 130.349 530.231C130.349 530.823 130.114 531.391 129.696 531.81C129.278 532.229 128.711 532.465 128.119 532.466Z" fill="#EAEDF5"/>
<path d="M52.3095 579.993C46.154 581.306 41.3526 585.328 41.3526 592.017V598.706C38.6032 601.373 37.9465 604.697 37.9465 608.062C39.3008 606.708 41.3526 606.052 43.4045 605.395C43.4429 606.629 43.9235 607.809 44.7588 608.719L41.3527 617.378C41.0097 617.985 40.8295 618.671 40.8295 619.368C40.8295 620.065 41.0097 620.751 41.3527 621.358C42.0503 623.369 43.4045 624.682 45.4564 624.682C46.8106 624.682 48.8625 624.026 49.5601 622.672C50.9143 621.317 50.9143 619.348 50.9143 617.337L48.8625 612.002C50.8136 612.823 52.9019 613.268 55.0181 613.315C56.5303 613.349 58.0343 613.082 59.4423 612.529C60.8503 611.976 62.1341 611.149 63.2189 610.094C64.3037 609.04 65.1677 607.78 65.7607 606.389C66.3537 604.997 66.6637 603.501 66.6726 601.989C66.6726 595.997 61.2146 590.663 54.3615 590.663C51.9228 590.598 49.5255 591.301 47.5083 592.673C51.0003 589.293 55.6572 587.383 60.517 587.339C69.422 587.339 76.9319 594.028 78.9838 603.343L92.6902 599.321L81.7333 594.643L100.898 587.298L85.837 586.641C85.837 586.641 103.647 573.304 106.397 565.958L52.3095 579.993ZM50.9553 597.352C51.6586 597.389 52.3246 597.68 52.8301 598.17C53.3355 598.66 53.6463 599.317 53.7048 600.019C53.7048 601.332 52.3505 602.03 50.9553 602.03C49.601 602.03 48.9034 600.676 48.9034 599.362C48.9034 598.008 49.56 597.352 50.9553 597.352Z" fill="#EAEDF5"/>
<path d="M108.244 644.662V640.938C109.123 642.731 110.471 644.252 112.145 645.34C113.819 646.428 115.757 647.041 117.752 647.116H130.458C135.541 647.116 141.237 658.244 143.778 661.311C145.662 658.244 148.86 647.729 153.943 647.116H167.919C172.345 647.116 175.543 644.662 178.084 639.711V642.165C178.074 646.949 176.22 651.546 172.906 654.998C169.593 658.45 165.076 660.492 160.296 660.698L148.247 690.93H138.739L125.42 661.925C120.865 661.876 116.511 660.038 113.298 656.809C110.086 653.58 108.27 649.217 108.244 644.662Z" fill="#EAEDF5"/>
<path fill-rule="evenodd" clip-rule="evenodd" d="M192.534 586.996C191.579 589.668 191.09 592.483 191.088 595.32C191.088 608.64 202.83 619.813 216.719 619.813C231.134 619.813 242.35 609.166 242.35 595.321C242.358 592.532 241.838 589.766 240.817 587.171C243.884 580.818 241.781 572.975 241.781 572.975C238.573 573.571 235.49 574.712 232.667 576.349C228.051 572.799 222.397 570.859 216.573 570.828C210.749 570.796 205.075 572.674 200.42 576.174C197.676 574.598 194.683 573.501 191.57 572.931C191.57 572.931 189.554 580.686 192.534 586.996ZM216.719 605.967C209.796 605.967 204.451 601.192 204.451 595.32C204.451 589.449 209.796 584.674 216.719 584.674C223.642 584.674 228.987 589.449 228.987 595.32C228.461 601.192 223.116 605.967 216.719 605.967ZM212.995 596.942C213.203 596.942 213.406 596.88 213.579 596.764C213.752 596.649 213.887 596.485 213.966 596.292C214.046 596.1 214.067 595.889 214.026 595.685C213.986 595.481 213.885 595.294 213.738 595.147C213.591 594.999 213.404 594.899 213.2 594.859C212.996 594.818 212.785 594.839 212.592 594.919C212.4 594.998 212.236 595.133 212.121 595.306C212.005 595.479 211.943 595.682 211.943 595.89C211.938 596.03 211.961 596.169 212.012 596.299C212.063 596.429 212.14 596.547 212.239 596.646C212.338 596.745 212.456 596.822 212.586 596.873C212.716 596.924 212.855 596.947 212.995 596.942H212.995ZM220.443 595.846C220.443 596.054 220.382 596.258 220.266 596.431C220.151 596.603 219.986 596.738 219.794 596.818C219.602 596.897 219.391 596.918 219.187 596.878C218.983 596.837 218.795 596.737 218.648 596.59C218.501 596.443 218.401 596.255 218.36 596.051C218.32 595.847 218.341 595.636 218.42 595.444C218.5 595.252 218.635 595.087 218.808 594.972C218.981 594.856 219.184 594.795 219.392 594.795C219.669 594.798 219.935 594.911 220.131 595.107C220.328 595.303 220.44 595.569 220.443 595.846H220.443Z" fill="#EAEDF5"/>
<path d="M243.213 950.458C237.057 951.771 232.256 955.793 232.256 962.482V969.171C229.506 971.838 228.85 975.162 228.85 978.527C230.204 977.173 232.256 976.516 234.308 975.86C234.346 977.094 234.827 978.274 235.662 979.184L232.256 987.843C231.913 988.45 231.733 989.136 231.733 989.833C231.733 990.53 231.913 991.216 232.256 991.823C232.953 993.834 234.308 995.147 236.359 995.147C237.714 995.147 239.766 994.491 240.463 993.136C241.817 991.782 241.817 989.812 241.817 987.802L239.766 982.467C241.717 983.287 243.805 983.733 245.921 983.78C247.433 983.814 248.937 983.547 250.345 982.994C251.753 982.441 253.037 981.613 254.122 980.559C255.207 979.505 256.071 978.245 256.664 976.854C257.257 975.462 257.567 973.966 257.576 972.454C257.576 966.462 252.118 961.127 245.265 961.127C242.826 961.063 240.429 961.766 238.411 963.138C241.903 959.758 246.56 957.848 251.42 957.803C260.325 957.803 267.835 964.492 269.887 973.808L283.593 969.786L272.636 965.108L291.801 957.762L276.74 957.106C276.74 957.106 294.55 943.769 297.3 936.423L243.213 950.458ZM241.858 967.817C242.562 967.854 243.228 968.144 243.733 968.635C244.239 969.125 244.549 969.782 244.608 970.484C244.608 971.797 243.254 972.495 241.858 972.495C240.504 972.495 239.806 971.141 239.806 969.827C239.806 968.473 240.463 967.817 241.858 967.817Z" fill="#EAEDF5"/>
<path fill-rule="evenodd" clip-rule="evenodd" d="M1.6303 957.461C0.675629 960.132 0.186564 962.948 0.1844 965.785C0.1844 979.105 11.9267 990.278 25.8158 990.278C40.2307 990.278 51.4471 979.631 51.4471 965.785C51.4551 962.996 50.9348 960.231 49.9136 957.636C52.9806 951.283 50.8775 943.44 50.8775 943.44C47.6693 944.036 44.587 945.177 41.7641 946.814C37.1472 943.263 31.494 941.324 25.67 941.292C19.846 941.261 14.172 943.139 9.51682 946.639C6.77238 945.063 3.77934 943.966 0.666352 943.396C0.666352 943.396 -1.3491 951.151 1.6303 957.461ZM25.8158 976.432C18.8931 976.432 13.5478 971.656 13.5478 965.785C13.5478 959.914 18.8931 955.138 25.8158 955.138C32.7384 955.138 38.0838 959.914 38.0838 965.785C37.558 971.656 32.2126 976.432 25.8158 976.432ZM22.0916 967.406C22.2995 967.406 22.5028 967.345 22.6758 967.229C22.8487 967.114 22.9835 966.949 23.063 966.757C23.1426 966.565 23.1634 966.354 23.1229 966.15C23.0823 965.946 22.9822 965.758 22.8351 965.611C22.688 965.464 22.5007 965.364 22.2967 965.324C22.0927 965.283 21.8813 965.304 21.6891 965.383C21.497 965.463 21.3328 965.598 21.2172 965.771C21.1017 965.944 21.04 966.147 21.04 966.355C21.0344 966.495 21.0578 966.634 21.1087 966.764C21.1595 966.894 21.2368 967.012 21.3356 967.111C21.4343 967.21 21.5525 967.287 21.6826 967.338C21.8127 967.389 21.952 967.412 22.0916 967.406ZM29.54 966.311C29.54 966.519 29.4783 966.722 29.3628 966.895C29.2472 967.068 29.083 967.203 28.8908 967.283C28.6987 967.362 28.4873 967.383 28.2833 967.342C28.0793 967.302 27.8919 967.202 27.7449 967.055C27.5978 966.908 27.4976 966.72 27.4571 966.516C27.4165 966.312 27.4373 966.101 27.5169 965.909C27.5965 965.717 27.7313 965.552 27.9042 965.437C28.0771 965.321 28.2805 965.26 28.4884 965.26C28.7661 965.263 29.0314 965.375 29.2278 965.572C29.4242 965.768 29.5362 966.033 29.54 966.311Z" fill="#EAEDF5"/>
<path d="M243.213 703.481C237.057 704.794 232.256 708.816 232.256 715.505V722.194C229.506 724.862 228.85 728.186 228.85 731.551C230.204 730.196 232.256 729.54 234.308 728.883C234.346 730.118 234.827 731.297 235.662 732.207L232.256 740.866C231.913 741.473 231.733 742.159 231.733 742.856C231.733 743.554 231.913 744.239 232.256 744.847C232.953 746.857 234.308 748.171 236.359 748.171C237.714 748.171 239.766 747.514 240.463 746.16C241.817 744.806 241.817 742.836 241.817 740.825L239.766 735.49C241.717 736.311 243.805 736.756 245.921 736.803C247.433 736.838 248.937 736.571 250.345 736.018C251.753 735.465 253.037 734.637 254.122 733.583C255.207 732.528 256.071 731.269 256.664 729.877C257.257 728.486 257.567 726.99 257.576 725.477C257.576 719.486 252.118 714.151 245.265 714.151C242.826 714.086 240.429 714.79 238.411 716.162C241.903 712.782 246.56 710.872 251.42 710.827C260.325 710.827 267.835 717.516 269.887 726.831L283.593 722.81L272.636 718.132L291.801 710.786L276.74 710.129C276.74 710.129 294.55 696.792 297.3 689.447L243.213 703.481ZM241.858 720.84C242.562 720.877 243.228 721.168 243.733 721.658C244.239 722.149 244.549 722.806 244.608 723.507C244.608 724.821 243.254 725.518 241.858 725.518C240.504 725.518 239.806 724.164 239.806 722.851C239.806 721.497 240.463 720.84 241.858 720.84Z" fill="#EAEDF5"/>
<path d="M141.57 764.94C153.882 760.471 162.864 753.767 166.194 740.93C151.647 741.499 140.431 746.494 130.923 757.141C125.927 762.891 122.461 769.808 120.846 777.252C119.181 782.816 120.276 785.62 125.885 788.424H165.624C163.959 774.973 157.256 766.035 141.57 764.94ZM128.119 779.443C127.537 779.41 126.987 779.165 126.575 778.752C126.162 778.34 125.917 777.79 125.885 777.208C125.924 776.628 126.172 776.083 126.583 775.672C126.994 775.261 127.539 775.013 128.119 774.973C128.711 774.975 129.278 775.211 129.696 775.63C130.114 776.049 130.349 776.616 130.349 777.208C130.349 777.8 130.114 778.367 129.696 778.786C129.278 779.205 128.711 779.441 128.119 779.443Z" fill="#EAEDF5"/>
<path d="M52.3095 826.97C46.154 828.283 41.3526 832.304 41.3526 838.993V845.682C38.6032 848.35 37.9465 851.674 37.9465 855.039C39.3008 853.685 41.3526 853.028 43.4045 852.372C43.4429 853.606 43.9235 854.786 44.7588 855.695L41.3527 864.354C41.0097 864.962 40.8295 865.647 40.8295 866.345C40.8295 867.042 41.0097 867.728 41.3527 868.335C42.0503 870.346 43.4045 871.659 45.4564 871.659C46.8106 871.659 48.8625 871.002 49.5601 869.648C50.9143 868.294 50.9143 866.324 50.9143 864.313L48.8625 858.978C50.8136 859.799 52.9019 860.245 55.0181 860.292C56.5303 860.326 58.0343 860.059 59.4423 859.506C60.8503 858.953 62.1341 858.125 63.2189 857.071C64.3037 856.017 65.1677 854.757 65.7607 853.365C66.3537 851.974 66.6637 850.478 66.6726 848.965C66.6726 842.974 61.2146 837.639 54.3615 837.639C51.9228 837.575 49.5255 838.278 47.5083 839.65C51.0003 836.27 55.6572 834.36 60.517 834.315C69.422 834.315 76.9319 841.004 78.9838 850.32L92.6902 846.298L81.7333 841.62L100.898 834.274L85.837 833.617C85.837 833.617 103.647 820.28 106.397 812.935L52.3095 826.97ZM50.9553 844.328C51.6586 844.366 52.3246 844.656 52.8301 845.147C53.3355 845.637 53.6463 846.294 53.7048 846.996C53.7048 848.309 52.3505 849.007 50.9553 849.007C49.601 849.007 48.9034 847.652 48.9034 846.339C48.9034 844.985 49.56 844.328 50.9553 844.328Z" fill="#EAEDF5"/>
<path d="M108.244 891.638V887.914C109.123 889.707 110.471 891.229 112.145 892.316C113.819 893.404 115.757 894.018 117.752 894.092H130.458C135.541 894.092 141.237 905.221 143.778 908.288C145.662 905.221 148.86 894.706 153.943 894.092H167.919C172.345 894.092 175.543 891.639 178.084 886.688V889.141C178.074 893.926 176.22 898.523 172.906 901.975C169.593 905.427 165.076 907.468 160.296 907.675L148.247 937.906H138.739L125.42 908.901C120.865 908.852 116.511 907.015 113.298 903.785C110.086 900.556 108.27 896.194 108.244 891.638Z" fill="#EAEDF5"/>
<path fill-rule="evenodd" clip-rule="evenodd" d="M192.534 833.972C191.579 836.644 191.09 839.46 191.088 842.297C191.088 855.617 202.83 866.789 216.719 866.789C231.134 866.789 242.35 856.142 242.35 842.297C242.358 839.508 241.838 836.743 240.817 834.148C243.884 827.794 241.781 819.952 241.781 819.952C238.573 820.548 235.49 821.689 232.667 823.325C228.051 819.775 222.397 817.836 216.573 817.804C210.749 817.772 205.075 819.65 200.42 823.15C197.676 821.574 194.683 820.478 191.57 819.908C191.57 819.908 189.554 827.663 192.534 833.972ZM216.719 852.944C209.796 852.944 204.451 848.168 204.451 842.297C204.451 836.426 209.796 831.65 216.719 831.65C223.642 831.65 228.987 836.426 228.987 842.297C228.461 848.168 223.116 852.944 216.719 852.944ZM212.995 843.918C213.203 843.918 213.406 843.856 213.579 843.741C213.752 843.625 213.887 843.461 213.966 843.269C214.046 843.077 214.067 842.865 214.026 842.661C213.986 842.457 213.885 842.27 213.738 842.123C213.591 841.976 213.404 841.876 213.2 841.835C212.996 841.795 212.785 841.816 212.592 841.895C212.4 841.975 212.236 842.11 212.121 842.282C212.005 842.455 211.943 842.659 211.943 842.867C211.938 843.006 211.961 843.145 212.012 843.276C212.063 843.406 212.14 843.524 212.239 843.623C212.338 843.721 212.456 843.799 212.586 843.85C212.716 843.9 212.855 843.924 212.995 843.918H212.995ZM220.443 842.823C220.443 843.031 220.382 843.234 220.266 843.407C220.151 843.58 219.986 843.715 219.794 843.794C219.602 843.874 219.391 843.895 219.187 843.854C218.983 843.814 218.795 843.713 218.648 843.566C218.501 843.419 218.401 843.232 218.36 843.028C218.32 842.824 218.341 842.613 218.42 842.42C218.5 842.228 218.635 842.064 218.808 841.948C218.981 841.833 219.184 841.771 219.392 841.771C219.669 841.775 219.935 841.887 220.131 842.083C220.328 842.28 220.44 842.545 220.443 842.823H220.443Z" fill="#EAEDF5"/>
</svg>
